# xmcd
#
# Track frame offsets:
#	150
#	19004
#	42248
#	59182
#	78198
#	95743
#	114477
#	129069
#	144309
#	179516
#	194695
#	212181
#	236536
#	255379
#	274888
#	300313
#	319070
#
# Disc length: 4595 seconds
#
# Revision: 1
# Processed by: cddbd v1.5.2PL0 Copyright (c) Steve Scherf et al.
# Submitted via: audiograbber 1.83.01
#
DISCID=ef11f111
DTITLE=Various Artist - Gothic Spirits 15 CD1
DYEAR=2012
DGENRE=Gothic Rock
TTITLE0=Nightwish - The Crow, The Owl And The Dove
TTITLE1=Epica - Storm The Sorrow
TTITLE2=Nemesea - Stay With Me
TTITLE3=Cryoshell - Falling
TTITLE4=Exilia - Over The Edge
TTITLE5=Coronatus - Saint Slayer
TTITLE6=Dark the Suns - Evensong
TTITLE7=Rotterfeld - Don't Be Afraid Of The Dark
TTITLE8=Draconian - Elysian Night
TTITLE9=Krypteria - Turn The World Around
TTITLE10=Lacuna Coil - End Of Time
TTITLE11=Vission of Atlantis - Melancholia
TTITLE12=Arven - Dark Red Desire
TTITLE13=Liquid Grey - Part Of Everything
TTITLE14=Halo in Reverse - Five To The Wrist
TTITLE15=Lahannya - Save Me
TTITLE16=Eisbrecher - Mein Blut (Pix-Mischung)
EXTD=
EXTT0=
EXTT1=
EXTT2=
EXTT3=
EXTT4=
EXTT5=
EXTT6=
EXTT7=
EXTT8=
EXTT9=
EXTT10=
EXTT11=
EXTT12=
EXTT13=
EXTT14=
EXTT15=
EXTT16=
PLAYORDER=
